<?xml version="1.0" encoding="UTF-8"?>
<svg id="Layer_2" data-name="Layer 2" xmlns="http://www.w3.org/2000/svg" viewBox="0 0 547.41 469.32">
  <defs>
    <style>
      .cls-1, .cls-2, .cls-3 {
        stroke: #f1f2f2;
        stroke-miterlimit: 10;
        stroke-width: 43px;
      }

      .cls-1, .cls-4 {
        fill: #38291b;
      }

      .cls-5 {
        fill: #fbfdfb;
      }

      .cls-5, .cls-6, .cls-7, .cls-8, .cls-9, .cls-4 {
        stroke-width: 0px;
      }

      .cls-6 {
        fill: #8b5e3c;
      }

      .cls-2, .cls-7 {
        fill: #463420;
      }

      .cls-8 {
        fill: #0c1315;
      }

      .cls-9, .cls-3 {
        fill: #a97c50;
      }
    </style>
  </defs>
  <g id="Layer_1-2" data-name="Layer 1">
    <g>
      <path class="cls-3" d="m166,53.66c14.3-8.08,29.31-14.25,44.95-18.41,7.92-2.11,20.63-.68,21.4-4.37.62-2.96-6.85-5.6-6.33-7.65.93-3.7,26.16.52,63.17,5.08,17.55,2.16,48.84,7.36,61.14,11.62,5.94,2.06,11.67,4.72,17.47,7.15,1.52.64,2.91,1.65,4.68,1.43,3.76.75,6.01,3.47,8.22,6.26,12.32,23.56,20.48,48.54,26.27,74.44,4.49,20.08,7.04,40.58,13.11,60.32,6.03,19.62,13.24,38.73,26.61,54.71,10.28,12.29,23.77,16.88,39.61,14.82,2.36-.31,4.79-1.8,7.16.04,12.48,45.29,13.97,60.74,10.67,62.02-1.82.71-4.93-2.96-7.48-1.58-2.94,1.59-.43,8.18-2.01,13.14-2.91,9.14-8.78,16.63-16.38,23.22-25.43,22.04-56.49,31.94-88.35,39.79-20.53,5.06-41.37,8.38-62.47,10.19-11.88,1.02-23.72,2.11-35.65,1.9-.4-1.7.64-2.87,1.63-3.94,3.87-4.2,5.57-9.25,6.36-14.8,1.55-10.84,2.12-21.71,1.47-32.64.52-1.61,1.84-2.33,3.32-2.71,7.45-1.89,13.51-6.28,19.46-10.84,5.41-4.14,11.12-7.88,16.35-12.26,4.34-3.64,6.01-7.27,4.05-9.6-3.13-3.72-6.94-1.68-10.02-.13-8.46,4.24-16.5,9.28-25.09,13.3-4.62,2.16-9.36,3.47-14.47,2.85-7.08-.86-11.98-6.48-12.15-13.61-.08-3.3,1.03-5.36,4.54-5.95,3.93-.66,7.82-1.58,11.55-3.05,10.82-4.28,15.87-11.91,15.8-23.94-.07-11.89-5.21-20.4-16.03-23.81-18.67-5.87-37.08-5.34-54.15,5.46-7.54,4.77-11.76,11.84-10.87,20.99.94,9.59,6.36,16.22,15.12,20.05,3.5,1.53,7.17,2.64,10.91,3.49,6.86,1.57,8.97,7.25,4.66,12.94-3.55,4.69-8.65,5.98-14.24,5.42-6.13-.61-11.33-3.63-16.41-6.85-4.91-3.11-9.49-6.75-14.71-9.36-5.92-2.96-9.35-2.93-11.33-.05-2.14,3.1-1.22,7.5,3.24,11.38,9.8,8.52,20.31,16.08,32.12,21.67,1.78.84,3.8,1.36,4.85,3.3,1.59,10.96,2.81,21.96,4.8,32.86,1.18,6.44,2.9,12.58,7.47,17.55.78.85,1.38,1.88,1.06,3.15-16.96-1.15-33.94-1.75-50.88-3.68-19.56-2.23-38.9-5.54-57.94-10.3-27.13-6.79-53.26-16.2-76.34-32.58-10.87-7.72-19.73-17.12-24.27-29.99-.79-2.23.43-7.22-1.24-7.8-2.68-.93-8.23,10.05-9.31,9.52-1.73-.85,11.51-29.88,9.35-31.02-1.24-.65-6.7,8.37-7.94,7.72-1.3-.68,5.96-13.91,8.99-32.45.71-4.33,1.02-7.94,1.17-10.34,2.31-.9,4.22.44,6.17,1.21,19.46,7.66,36.95,3.77,52.5-9.46,18.49-15.74,28.48-36.49,33.47-59.81,4.25-19.85,6.34-40.01,8.24-60.21,1.66-17.68,2.56-35.43,4.72-53.06,1.04-8.52,3.83-16.48,7.04-24.34,2.21-2.53.84-5.6,1.22-8.4Z"/>
      <path class="cls-2" d="m166,53.66c.75,2.55,3.11,5.07.11,7.68-1.18,2.2-2.51,4.43-4.24,6.12-7.21,7.06-9.29,16.27-11.24,25.57-3.86,18.38-5.83,37.07-9.04,55.56-4.36,25.12-10.39,49.73-21.81,72.75-5.55,11.19-13.06,20.77-22.37,29-3.75,3.31-3.69,2.18-8.54,6-7.83,6.16-9.02,9.06-12.49,9.01-4.87-.08-7.23-5.88-10.63-4.77-2.57.85-2.27,4.52-4.2,5.12-4.22,1.3-12.54-14.21-14.61-18.13-9.99-18.87-15.58-28.16-18.23-40.02-3.07-13.8-4.28-27.85-5.76-41.89-.96-9.11-1.09-18.25-1.27-27.32-.32-16.83-.89-33.86,4.78-50.19,9.45-27.21,46.87-34.92,44.57-40.41-.77-1.84-4.77-1.17-4.9-2.27-.33-2.7,23.01-10.09,49.11-10.22,28.91-.14,40.49,8.87,43.45,11.02,2.87,2.08,4.93,4.87,7.3,7.4Z"/>
      <path class="cls-2" d="m379.35,54.52c-2.29-2.01-4.58-4.01-6.86-6.02,4.86-3.86,13.05-9.82,24.22-15.17,22.24-10.66,47.37-14.65,49.54-9.75.9,2.04-2.32,5.25-1.33,6.15,1.5,1.36,3.06,23.38,9.1,24.8,3.88.91,8.96-25.26,13-20.81,6.54,7.22,13.9,4.08,24.81,9.69,8.09,4.16,14.36,10.51,20.4,17.13,8.05,8.49,9.84,19.43,11.32,30.27,1.73,12.66,2.84,25.44,2.15,38.23-1.35,25.18-2.27,50.44-8.86,75-1.43,5.33-4.32,14.86-11.01,25.47-6.12,9.71-12.31,19.53-21.81,20.66-9.92,1.18-18.25-7.74-26.18-16.24-11.98-12.84-18.22-26.09-22.17-36.75-6.37-17.19-9.92-35.16-14.42-52.87-5.53-21.75-11.65-43.3-19.72-64.28-3.11-8.09-8.19-14.36-14.87-19.53-2.49-1.93-4.86-4.01-7.31-5.98Z"/>
      <path class="cls-1" d="m219.61,321.34c105.64-125.76,167.15,54.4,130.03,117.52-3.8,6.46-13.38,5.6-15.99-1.43-3.89-10.5-7.27-24.18-10.91-23.64-5.37.8-2.63,31.17-9.95,32.7-7.78,1.63-18.24-31.19-27.84-29.59-7.52,1.26-8.6,22.69-12.93,22.54-4.72-.16-5.41-25.78-10.77-26.28-6.39-.6-12.6,35.14-18.59,34.64-.92-.08-1.72-.99-2.43-2.49-2.76-5.84-10.9-6.63-14.88-1.55-15.03,19.14-44.99-71.53-5.74-122.44Z"/>
      <path class="cls-2" d="m306.7,285.35c24.67-7.05,50.75,13.46,55.77,17.41,5.6,4.4,11.32,10.19,25.04,41.19,20.79,49.67,23.93,65.67,8.1,82.91-2.8,3.05-7.88.8-7.47-3.32.48-4.8.85-9.63-1.28-10.12-4.54-1.04-14.95,18.79-20.19,17.78-6.09-1.18,2-29.13-5.21-30.83-7-1.65-22.17,22.95-27.54,21.42-3.96-1.13,4-14.6.42-32.84-2.56-13-9.79-22.33-13.77-27.36-16.78-21.17-32.93-19.92-38.52-33.73-6-14.83,4.35-36.72,24.65-42.52Z"/>
      <path class="cls-2" d="m240.68,288.88c-25.04-6.33-49.95,14.91-54.75,19-5.34,4.56-10.73,10.5-22.69,41.88-18.05,50.45-20.22,66.45-3.2,83.29,2.87,2.84,7.7.41,7.08-3.58-.76-4.84-1.45-9.77.68-10.32,4.47-1.16,16,18.35,21.18,17.19,6.02-1.35-3.64-29.05,3.46-30.95,6.9-1.85,23.45,22.3,28.73,20.62,3.9-1.24-4.83-14.48-2.27-32.8,1.82-13.07,8.52-22.59,12.22-27.73,15.57-21.64,31.78-20.85,36.59-34.81,5.16-14.99-6.42-36.57-27.03-41.78Z"/>
    </g>
    <g>
      <path class="cls-9" d="m166,53.66c14.3-8.08,29.31-14.25,44.95-18.41,7.92-2.11,20.63-.68,21.4-4.37.62-2.96-6.85-5.6-6.33-7.65.93-3.7,26.16.52,63.17,5.08,17.55,2.16,48.84,7.36,61.14,11.62,5.94,2.06,11.67,4.72,17.47,7.15,1.52.64,2.91,1.65,4.68,1.43,3.76.75,6.01,3.47,8.22,6.26,12.32,23.56,20.48,48.54,26.27,74.44,4.49,20.08,7.04,40.58,13.11,60.32,6.03,19.62,13.24,38.73,26.61,54.71,10.28,12.29,23.77,16.88,39.61,14.82,2.36-.31,4.79-1.8,7.16.04,12.48,45.29,13.97,60.74,10.67,62.02-1.82.71-4.93-2.96-7.48-1.58-2.94,1.59-.43,8.18-2.01,13.14-2.91,9.14-8.78,16.63-16.38,23.22-25.43,22.04-56.49,31.94-88.35,39.79-20.53,5.06-41.37,8.38-62.47,10.19-11.88,1.02-23.72,2.11-35.65,1.9-.4-1.7.64-2.87,1.63-3.94,3.87-4.2,5.57-9.25,6.36-14.8,1.55-10.84,2.12-21.71,1.47-32.64.52-1.61,1.84-2.33,3.32-2.71,7.45-1.89,13.51-6.28,19.46-10.84,5.41-4.14,11.12-7.88,16.35-12.26,4.34-3.64,6.01-7.27,4.05-9.6-3.13-3.72-6.94-1.68-10.02-.13-8.46,4.24-16.5,9.28-25.09,13.3-4.62,2.16-9.36,3.47-14.47,2.85-7.08-.86-11.98-6.48-12.15-13.61-.08-3.3,1.03-5.36,4.54-5.95,3.93-.66,7.82-1.58,11.55-3.05,10.82-4.28,15.87-11.91,15.8-23.94-.07-11.89-5.21-20.4-16.03-23.81-18.67-5.87-37.08-5.34-54.15,5.46-7.54,4.77-11.76,11.84-10.87,20.99.94,9.59,6.36,16.22,15.12,20.05,3.5,1.53,7.17,2.64,10.91,3.49,6.86,1.57,8.97,7.25,4.66,12.94-3.55,4.69-8.65,5.98-14.24,5.42-6.13-.61-11.33-3.63-16.41-6.85-4.91-3.11-9.49-6.75-14.71-9.36-5.92-2.96-9.35-2.93-11.33-.05-2.14,3.1-1.22,7.5,3.24,11.38,9.8,8.52,20.31,16.08,32.12,21.67,1.78.84,3.8,1.36,4.85,3.3,1.59,10.96,2.81,21.96,4.8,32.86,1.18,6.44,2.9,12.58,7.47,17.55.78.85,1.38,1.88,1.06,3.15-16.96-1.15-33.94-1.75-50.88-3.68-19.56-2.23-38.9-5.54-57.94-10.3-27.13-6.79-53.26-16.2-76.34-32.58-10.87-7.72-19.73-17.12-24.27-29.99-.79-2.23.43-7.22-1.24-7.8-2.68-.93-8.23,10.05-9.31,9.52-1.73-.85,11.51-29.88,9.35-31.02-1.24-.65-6.7,8.37-7.94,7.72-1.3-.68,5.96-13.91,8.99-32.45.71-4.33,1.02-7.94,1.17-10.34,2.31-.9,4.22.44,6.17,1.21,19.46,7.66,36.95,3.77,52.5-9.46,18.49-15.74,28.48-36.49,33.47-59.81,4.25-19.85,6.34-40.01,8.24-60.21,1.66-17.68,2.56-35.43,4.72-53.06,1.04-8.52,3.83-16.48,7.04-24.34,2.21-2.53.84-5.6,1.22-8.4Z"/>
      <path class="cls-4" d="m26.47,88.14c-2.07,12.24-2.88,24.6-3.65,36.97-.73,11.62.66,23.2,1.09,34.78.42,11.36,2.11,22.71,3.69,33.99,2.88,20.49,8.68,40.01,23.02,55.64,12.05,13.12,27.16,13.84,41.55,3.21,13.77-10.17,23.06-23.69,29.79-39.15,11.01-25.26,16.43-51.96,20.39-79.07,2.39-16.35,4.85-32.68,8.49-48.84,2.29-10.15,7.91-17.66,15.28-24.34-8.23,19.02-8.12,39.41-9.96,59.52-3.49,38.08-7.74,67.7-13.03,90.45-3.23,13.88-7.32,28.43-18.4,38.15-2.76,2.42-5.3,3.97-9.36,8.33-10.24,11.01-10.17,18.44-16.41,19.9-6.05,1.42-8.45-5-15.82-3.75-7.11,1.21-8.36,8.42-13.83,8.34-7.05-.11-12.76-7.64-16.66-14.55-10.7-11.68-30.1-31.08-35.06-61.03-4.48-27.12-5.99-54.39-3-81.77,1.32-12.04,3.36-23.99,9.96-34.56.51-.82,1.27-1.49,1.92-2.23Z"/>
      <path class="cls-4" d="m379.35,54.52c10.17,4.66,17.93,11.86,22.24,22.23,12.26,29.49,19.35,60.54,27,91.41,4.52,18.24,9.58,36.28,19.75,52.35,5.5,8.68,12.24,16.25,22.33,19.7,13.74,4.7,25.59.54,33.95-11.36,7.94-11.31,11.3-24.3,13.68-37.53,3.11-17.27,4.35-34.75,5.35-52.3,1.11-19.48.34-38.69-3.22-57.83-1.39-7.43-4.63-14.12-8.21-20.68,9.1,6.89,12.93,16.98,16.12,27.29,5.34,17.22,5.42,34.91,4.51,52.76-2.9,57.01-1.84,69.09-9.51,80.39-1.77,2.61-7.29,10.2-13.57,18.25-6.68,8.57-12.44,15.38-16.31,19.86-1.33,2.52-6.76,12.2-15.45,12.96-3.03.27-7.93-.43-20-12.59-14.26-14.37-20.42-25.63-20.42-25.63-18.21-33.31-24.89-69.39-24.89-69.39-3.9-25.86-12.48-62.69-33.35-109.92Z"/>
      <path class="cls-7" d="m166,53.66c.75,2.55,3.11,5.07.11,7.68-1.18,2.2-2.51,4.43-4.24,6.12-7.21,7.06-9.29,16.27-11.24,25.57-3.86,18.38-5.83,37.07-9.04,55.56-4.36,25.12-10.39,49.73-21.81,72.75-5.55,11.19-13.06,20.77-22.37,29-3.75,3.31-3.69,2.18-8.54,6-7.83,6.16-9.02,9.06-12.49,9.01-4.87-.08-7.23-5.88-10.63-4.77-2.57.85-2.27,4.52-4.2,5.12-4.22,1.3-12.54-14.21-14.61-18.13-9.99-18.87-15.58-28.16-18.23-40.02-3.07-13.8-4.28-27.85-5.76-41.89-.96-9.11-1.09-18.25-1.27-27.32-.32-16.83-.89-33.86,4.78-50.19,9.45-27.21,46.87-34.92,44.57-40.41-.77-1.84-4.77-1.17-4.9-2.27-.33-2.7,23.01-10.09,49.11-10.22,28.91-.14,40.49,8.87,43.45,11.02,2.87,2.08,4.93,4.87,7.3,7.4Z"/>
      <path class="cls-7" d="m379.35,54.52c-2.29-2.01-4.58-4.01-6.86-6.02,4.86-3.86,13.05-9.82,24.22-15.17,22.24-10.66,47.37-14.65,49.54-9.75.9,2.04-2.32,5.25-1.33,6.15,1.5,1.36,8.03-6.84,14.06-5.42,3.88.91,3.99,4.96,8.03,9.41,6.54,7.22,13.9,4.08,24.81,9.69,8.09,4.16,14.36,10.51,20.4,17.13,8.05,8.49,9.84,19.43,11.32,30.27,1.73,12.66,2.84,25.44,2.15,38.23-1.35,25.18-2.27,50.44-8.86,75-1.43,5.33-4.32,14.86-11.01,25.47-6.12,9.71-12.31,19.53-21.81,20.66-9.92,1.18-18.25-7.74-26.18-16.24-11.98-12.84-18.22-26.09-22.17-36.75-6.37-17.19-9.92-35.16-14.42-52.87-5.53-21.75-11.65-43.3-19.72-64.28-3.11-8.09-8.19-14.36-14.87-19.53-2.49-1.93-4.86-4.01-7.31-5.98Z"/>
      <path class="cls-4" d="m219.61,321.34c112.18-133.54,174.59,77.87,121.99,127.8-7.8,0-12.98-36.22-18.87-35.34-5.37.8-2.63,31.17-9.95,32.7-7.78,1.63-18.24-31.19-27.84-29.59-7.52,1.26-8.6,22.69-12.93,22.54-4.72-.16-5.41-25.78-10.77-26.28-6.39-.6-12.6,35.14-18.59,34.64-6.28-.51-7.19-40.33-10.18-40.31-3.24,102.41-61.77-22.74-12.87-86.17Z"/>
      <path class="cls-7" d="m306.7,290.14c24.67-7.05,50.75,13.46,55.77,17.41,5.6,4.4,11.32,10.19,25.04,41.19,21.36,51.04,24.09,66.53,6.76,84.33-2.43,2.5-6.65.57-6.3-2.9.52-5.32,1.31-11.42-1.1-11.97-4.54-1.04-14.95,18.79-20.19,17.78-6.09-1.18,2-29.13-5.21-30.83-7-1.65-22.17,22.95-27.54,21.42-3.96-1.13,4-14.6.42-32.84-2.56-13-9.79-22.33-13.77-27.36-16.78-21.17-32.93-19.92-38.52-33.73-6-14.83,4.35-36.72,24.65-42.52Z"/>
      <path class="cls-7" d="m240.68,288.88c-25.04-6.33-49.95,14.91-54.75,19-5.34,4.56-10.73,10.5-22.69,41.88-17.74,49.6-20.14,65.89-4.05,82.44,3.08,3.16,8.4.46,7.74-3.9s-1.09-8.63.87-9.14c4.47-1.16,16,18.35,21.18,17.19,6.02-1.35-3.64-29.05,3.46-30.95,6.9-1.85,23.45,22.3,28.73,20.62,3.9-1.24-4.83-14.48-2.27-32.8,1.82-13.07,8.52-22.59,12.22-27.73,15.57-21.64,31.78-20.85,36.59-34.81,5.16-14.99-6.42-36.57-27.03-41.78Z"/>
      <path class="cls-8" d="m295,263.99c-2.57-.65-5.18-1.24-7.81-1.48-14.96-1.38-29.62-.68-42.69,7.87-7.74,5.07-13.08,11.92-12.4,21.8.7,10.16,6.06,17.3,15.14,21.73,4.51,2.2,9.25,3.68,14.24,4.18.44.04.83.11,1.18.2,1.26.32,2.56.39,3.86.4,1.96.02,3.97.34,5.95.79,1.35.31,2.72.48,4.1.51.64.01,1.27.03,1.91.05,2.42.08,4.78-.5,7.06-1.32,1.73-.62,4.11-.09,5.88-.77,1.54-.59,3.25-.71,4.82-1.23,8.37-2.78,15.33-7.33,18.44-16.05,5.84-16.38-2.83-32.44-19.66-36.68Z"/>
      <g>
        <path class="cls-8" d="m174.76,239.05c7.82.17,14.12,3.02,18.84,8.31,8.23,9.21,8.93,24.32,1.76,34.21-9.84,13.6-30.85,14.05-41.42.89-7.88-9.81-7.27-25.96,1.35-35.33,5-5.44,11.54-8.03,19.47-8.08Z"/>
        <path class="cls-8" d="m399.48,263.98c-.04,8.23-2,14.78-7.38,20.27-11.4,11.62-31.68,9.87-40.39-3.61-6.17-9.55-6.35-19.54-1.03-29.44,4.43-8.23,14.25-13.57,23.54-12.91,11.27.8,18.83,6.13,22.9,15.18,1.67,3.71,2.57,7.62,2.35,10.52Z"/>
        <path class="cls-5" d="m175.78,255.59c0,4.77-4.17,8.9-8.97,8.89-3.47,0-6.87-3.3-6.88-6.67-.02-4.63,4.34-8.76,9.14-8.65,4.32.09,6.71,2.39,6.7,6.43Z"/>
        <path class="cls-5" d="m373.19,255.12c0,4.67-4.33,8.64-9.38,8.63-3.66-.01-7.29-3.2-7.3-6.41-.02-4.19,5.06-8.86,9.54-8.77,3.95.09,7.15,3.03,7.15,6.56Z"/>
      </g>
      <path class="cls-6" d="m313.08,393.1c1.57,1.73,3.14,3.45,4.71,5.18"/>
    </g>
  </g>
</svg>