<?xml version="1.0" encoding="UTF-8"?>
<svg id="Layer_2" data-name="Layer 2" xmlns="http://www.w3.org/2000/svg" viewBox="0 0 671.51 145.35">
  <defs>
    <style>
      .cls-1 {
        fill: #fefefe;
      }

      .cls-1, .cls-2, .cls-3, .cls-4, .cls-5, .cls-6, .cls-7, .cls-8, .cls-9, .cls-10 {
        stroke-width: 0px;
      }

      .cls-2 {
        fill: #fcfcfb;
      }

      .cls-3 {
        fill: #eb4c4c;
      }

      .cls-4 {
        fill: #fff;
      }

      .cls-5 {
        fill: #f37b4c;
      }

      .cls-6 {
        fill: #ef7274;
      }

      .cls-7 {
        fill: #231f20;
      }

      .cls-8 {
        fill: #f5a53b;
      }

      .cls-9 {
        fill: #db3432;
      }

      .cls-10 {
        fill: #ed6161;
      }
    </style>
  </defs>
  <g id="Layer_1-2" data-name="Layer 1">
    <g>
      <path class="cls-7" d="m91.25,72.25c0,8.38-1.25,16.88-3.75,25.5-2.5,8.62-5.88,15.95-10.13,21.97-7.84,11.09-18.22,16.64-31.15,16.64-2.61,0-6.51-.12-11.69-.36-5.18-.24-9.08-.36-11.69-.36-2.3,0-5.76.12-10.36.36-4.61.24-8.04.36-10.29.36-1.46,0-2.19-.87-2.19-2.62,0-6.57.22-16.44.66-29.61.44-13.17.66-23.04.66-29.61,0-6.99-.21-17.5-.63-31.51S.07,18.51.07,11.58c0-1.39.55-2.08,1.66-2.08h16.74c1.68,0,4.07-.03,7.17-.09,3.32-.06,5.82-.09,7.5-.09,17.89,0,30.95,3.71,39.18,11.12,5.75,5.12,10.38,12.75,13.88,22.88,3.36,9.58,5.05,19.23,5.05,28.94Zm-34.27,0c0-7.11-1.78-13.17-5.35-18.18-3.56-5-7.94-7.51-13.12-7.51-2.21,0-3.32,1.25-3.32,3.75s-.04,6.28-.13,11.35c-.09,5.06-.13,8.86-.13,11.39s.04,6.16.13,11.08c.09,4.91.13,8.61.13,11.08,0,2.71,1.24,4.07,3.72,4.07,5.31,0,9.7-2.71,13.15-8.14,3.28-5.18,4.91-11.48,4.91-18.9Z"/>
      <path class="cls-7" d="m179.68,135.37c0,.66-.6,1-1.79,1-1.95,0-4.84-.12-8.67-.36-3.83-.24-6.7-.36-8.6-.36s-4.62.12-8.27.36c-3.65.24-6.39.36-8.2.36-1.51,0-2.5-.75-2.99-2.26-.8-2.71-1.95-6.81-3.45-12.3-1.46-4.94-3.54-12.45-6.24-22.52-.62-2.59-1.19-3.89-1.73-3.89-.4,0-.6.99-.6,2.98,0,4.1.3,10.25.9,18.45.6,8.2.9,14.23.9,18.08,0,1.39-.44,2.08-1.33,2.08-.31,0-.86-.09-1.66-.27-3.81-.72-9.56-1.08-17.27-1.08-1.68,0-4.22.12-7.6.36-3.39.24-5.92.36-7.6.36-1.46,0-2.19-.87-2.19-2.62,0-6.75.27-16.89.8-30.43.53-13.53.8-23.68.8-30.43,0-17.24-.62-37.25-1.86-60.04l-.07-1.27c-.09-1.21.33-1.9,1.26-2.08-.09,0,.75,0,2.52,0,4.83,0,12.11-.09,21.85-.27,9.74-.18,17.04-.27,21.92-.27,10.36,0,18.9,2.98,25.63,8.95,7.84,7.05,11.75,17.27,11.75,30.65,0,8.68-.94,15.67-2.82,20.98-1.88,5.31-5.3,10.37-10.26,15.19-1.06,1.03-1.59,2.02-1.59,2.98,0,.72,2.74,8.68,8.23,23.87s8.24,23.12,8.24,23.78Zm-37.59-80.3c0-6.81-3.68-10.22-11.02-10.22-1.82,0-2.72,3.77-2.72,11.3,0,.9.04,2.26.13,4.07.09,1.81.13,3.16.13,4.07s.91,1.36,2.72,1.36c7.17,0,10.76-3.53,10.76-10.58Z"/>
      <path class="cls-7" d="m216.65,133.74c0,1.81-.64,2.71-1.93,2.71-1.9,0-4.77-.14-8.6-.41-3.83-.27-6.72-.41-8.67-.41-1.82,0-4.55.12-8.2.36-3.65.24-6.39.36-8.2.36-1.46,0-2.19-.87-2.19-2.62,0-7.35.22-18.45.66-33.28.44-14.83.66-25.95.66-33.37,0-6.21-.21-15.51-.63-27.9-.42-12.39-.63-21.63-.63-27.71,0-1.33.53-1.99,1.59-1.99,1.95,0,4.88.12,8.8.36,3.92.24,6.87.36,8.87.36,1.86,0,4.65-.12,8.37-.36,3.72-.24,6.49-.36,8.3-.36,1.15,0,1.73.72,1.73,2.17,0,6.15-.21,15.39-.63,27.72-.42,12.33-.63,21.57-.63,27.71,0,7.42.22,18.54.66,33.37.44,14.83.66,25.92.66,33.28Z"/>
      <path class="cls-7" d="m314.71,11.94c0,6.87-.24,17.23-.73,31.06-.49,13.83-.73,24.22-.73,31.15l-.13,60.13c0,1.39-.78,2.08-2.32,2.08-1.46,0-3.64-.12-6.54-.36-2.9-.24-5.08-.36-6.54-.36s-3.79.12-6.84.36c-3.06.24-5.36.36-6.91.36-.75,0-1.66-1-2.72-2.98-16.07-30.26-24.77-45.39-26.1-45.39-.62,0-.93.87-.93,2.62,0,4.7.13,11.77.4,21.21.26,9.43.4,16.5.4,21.2,0,2.23-.69,3.35-2.06,3.35-1.59,0-4-.12-7.21-.36-3.21-.24-5.61-.36-7.21-.36-1.73,0-4.33.12-7.8.36-3.48.24-6.08.36-7.8.36-1.46,0-2.19-.87-2.19-2.62,0-6.57.22-16.44.66-29.61.44-13.17.66-23.04.66-29.61s-.21-17.17-.63-30.88c-.42-13.71-.63-23.98-.63-30.79,0-1.33.91-1.99,2.72-1.99,1.99,0,6.31-.51,12.95-1.54.89-.12,3.25-.63,7.11-1.54,2.92-.72,5.27-1.08,7.04-1.08.62,0,1.53,1.3,2.72,3.89.75,1.63,4.32,8.53,10.69,20.71,3.41,6.81,8.79,16.7,16.14,29.66.44-.42.66-2.38.66-5.88,0-4.64-.29-11.65-.86-21.02-.58-9.37-.86-16.38-.86-21.02,0-2.35.44-3.53,1.33-3.53,1.77,0,4.43.09,7.97.27,3.54.18,6.2.27,7.97.27,1.9,0,4.76-.09,8.57-.27,3.81-.18,6.66-.27,8.57-.27.8,0,1.2.81,1.2,2.44Z"/>
      <path class="cls-7" d="m408.85,131.21c0,.9-.41,1.99-1.23,3.26-.82,1.27-1.54,1.9-2.16,1.9-1.24,0-3.09-.12-5.55-.36-2.46-.24-4.28-.36-5.48-.36-2.44,0-6.09.12-10.96.36-4.87.24-8.52.36-10.96.36-.71,0-1.17-.36-1.39-1.08-.22-.72-.44-1.48-.66-2.26-1.06-3.74-2.77-8.62-5.11-14.65-2.83-7.23-4.67-12.03-5.51-14.38-1.06-3.86-2.19-7.75-3.39-11.66-.18-.3-.29-.45-.33-.45-.84,0-1.26,1.51-1.26,4.52,0,4.04.13,10.14.4,18.31.27,8.17.4,14.27.4,18.31,0,2.23-.69,3.35-2.06,3.35-1.9,0-4.76-.12-8.57-.36-3.81-.24-6.66-.36-8.57-.36-1.73,0-4.33.12-7.8.36-3.48.24-6.08.36-7.8.36-1.46,0-2.19-.87-2.19-2.62,0-6.57.22-16.44.66-29.61.44-13.17.66-23.04.66-29.61,0-6.99-.21-17.5-.63-31.51-.42-14.02-.63-24.52-.63-31.51,0-1.33.53-1.99,1.59-1.99,1.86,0,4.66.12,8.4.36,3.74.24,6.54.36,8.4.36s4.74-.14,8.5-.41c3.76-.27,6.57-.41,8.43-.41.71,0,1.06.6,1.06,1.81,0,4.22-.11,10.57-.33,19.03-.22,8.47-.33,14.82-.33,19.03,0,2.41.11,3.95.33,4.61.4,1.03,1.37,1.54,2.92,1.54,5.71,0,9.27-7.02,10.69-21.07.89-8.56,2.9-16.1,6.04-22.61.89-1.87,6.55-2.8,17-2.8,11.38,0,17.07.87,17.07,2.62,0,.3-.11.72-.33,1.27-1.86,3.8-2.79,5.73-2.79,5.79-.84,1.99-1.42,4.19-1.73,6.6-1.15,8.38-1.79,13.05-1.93,14.02-.89,5.19-2.01,9.65-3.39,13.38-1.68,4.58-4.18,9.1-7.5,13.56-2.35,3.14-3.52,5.21-3.52,6.24,0,.36,1.22,4.64,3.65,12.84,1.55,5.37,4.09,13.26,7.64,23.69.44,1.03,3.81,8.17,10.09,21.43.09.24.13.51.13.81Z"/>
      <path class="cls-7" d="m636.01,59.5c0,16.16-3.08,28.82-9.23,37.98-6.38,9.53-15.41,14.29-27.1,14.29-.89,0-2.2-.11-3.95-.32-1.75-.21-3.07-.32-3.95-.32-2.35,0-3.52.94-3.52,2.8,0,2.35.2,5.86.6,10.54.4,4.67.6,8.15.6,10.44,0,1.39-.44,2.08-1.33,2.08-.31,0-.86-.09-1.66-.27-3.85-.72-9.61-1.08-17.27-1.08-1.68,0-4.22.12-7.6.36-3.39.24-5.92.36-7.6.36-1.46,0-2.19-.87-2.19-2.62,0-6.75.26-16.89.8-30.43.53-13.53.8-23.68.8-30.43,0-17.24-.62-37.25-1.86-60.04l-.07-1.27c-.09-1.39.44-2.08,1.59-2.08,2.74,0,6.86.12,12.35.36,5.49.24,9.61.36,12.35.36,2.35,0,5.87-.12,10.56-.36,4.69-.24,8.21-.36,10.56-.36,10.98,0,19.91,4.6,26.8,13.79,6.88,9.19,10.33,21.27,10.33,36.21Zm-36.06,1.27c0-8.86-3.17-13.29-9.5-13.29-1.82,0-2.72,4.43-2.72,13.29,0,1.39.04,3.44.13,6.15.09,2.71.13,4.76.13,6.15,0,.96.66,1.45,1.99,1.45,6.64,0,9.96-4.58,9.96-13.74Z"/>
      <path class="cls-7" d="m671.51,30.47c0,9.16-.38,16.19-1.13,21.07-.75,4.88-2.1,11-4.05,18.36l-4.78,18.08c-.44,1.99-1.44,2.98-2.99,2.98l-4.05.09-5.05-.09c-1.37,0-2.32-.84-2.86-2.53-5.54-18.33-8.3-28.85-8.3-31.56l.13-44.22c0-2.11.55-3.17,1.66-3.17,1.64,0,4.11.12,7.41.36,3.3.24,5.77.36,7.41.36s4.11-.12,7.4-.36c3.3-.24,5.77-.36,7.41-.36,1.11,0,1.66,1.03,1.66,3.07s.02,5.05.07,9c.04,3.95.07,6.92.07,8.91Zm-.27,85.9c0,6.57-1.52,11.92-4.55,16.05-3.03,4.13-6.96,6.19-11.79,6.19s-8.76-2.07-11.79-6.19c-3.03-4.13-4.55-9.48-4.55-16.05s1.5-12,4.52-16.1c3.01-4.1,6.95-6.15,11.82-6.15s8.75,2.07,11.79,6.19c3.03,4.13,4.55,9.48,4.55,16.05Z"/>
    </g>
    <g>
      <g>
        <path class="cls-3" d="m462.55,20.45c1.29,2.13,2.32,4.42,3.41,6.67,3.62,7.54,6.98,15.21,10.69,22.69.22.81.66,1.5,1.11,2.19,1.43,2.5,2.37,5.14,2.44,8.12.04,1.88.61,3.67,1.42,5.35-.05.39-.31.63-.57.87-9.24,8.55-18.39,17.21-28.43,24.72-3.75,2.8-7.6,5.42-11.62,7.76-.59.35-1.19.7-1.86.88-.41.1-.81.18-1.23.14-1.21-.2-2.02-1.09-2.85-1.91-1.74-1.7-3.04-3.81-4.47-5.79-4.78-6.6-9.81-12.98-14.64-19.53-1.09-1.48-2.16-2.97-3.21-4.47-.28-.39-.58-.78-.66-1.29,0-.57.41-.79.79-.98,4.93-2.48,9.45-5.7,14.02-8.83,3.04-2.08,5.94-4.38,8.9-6.58.31-.14.59-.33.79-.62.54-.48,1.1-.92,1.67-1.35.29-.15.54-.35.74-.63.36-.34.76-.64,1.14-.96.3-.16.53-.4.71-.69,3.4-3.16,6.81-6.32,9.96-9.77,4.14-4.54,7.78-9.47,10.86-14.87.23-.41.38-.92.87-1.1Z"/>
        <path class="cls-3" d="m483.31,68.83c1.21,2.34,2.32,4.73,3.36,7.15.27,1.1.92,2,1.43,2.97,2.91,6.11,5.82,12.21,8.74,18.32.17.35.31.73.55,1.03,1.03,1.3,1.44,2.74.93,4.4-.09.3.16.55.11.84-.57,2.12-1.71,3.93-2.83,5.74-2.86,4.63-6.41,8.6-10.25,12.3-4.45,4.28-9.34,7.89-14.51,11.08-1.47.91-2.96,1.78-4.49,2.56-.33.17-.66.39-1.05.25-1.89-2.48-3.73-5.01-5.61-7.49-5.8-7.64-11.73-15.17-17.21-23.08-.47-.68-1.06-1.3-1.24-2.17.1-.65.65-.85,1.08-1.13,3.02-1.93,6.03-3.87,8.95-5.98,7.02-5.06,13.67-10.64,20.16-16.44,3.57-3.2,7.11-6.44,10.62-9.71.35-.33.69-.79,1.27-.64Z"/>
        <path class="cls-8" d="m375.69,59.15c-2.55,1.17-4.56.24-5.39-2.51-.08-.25-.05-.56-.41-.52-.26.03-.41.17-.56.43-1.4,2.28-3.36,3.86-5.72,4.78-3.05,1.2-5.44-.66-5.58-4.14-.16-3.98,1.45-7.11,4.02-9.8.31-.32.61-.66.94-.95.53-.47.62-.98.5-1.74-.31-1.96.51-3.53,1.84-4.8,2.93-2.81,6.6-3.9,10.28-4.9,1.25-.34,2.53-.56,3.8-.83.16-.11.32-.21.51-.2,2.1.1,4.19-.22,6.29-.29,1.14-.04,2.23.21,3.27.88,4.09,2.62,8.5,3.05,13.07,1.84,5.44-1.44,10.36-4.1,15.01-7.38,2.17-1.53,4.33-3.06,6.45-4.66,3.41-2.58,7.12-4.65,10.62-7.07,4.21-2.92,8.22-6.12,11.78-9.91.28-.3.55-.63.89-.86.42-.28.81-.35,1.06.24.08.5-.17.89-.38,1.29-2.87,5.24-6.29,10.04-10.27,14.37-9.11,9.89-19.57,17.87-30.83,24.7-5.69,3.45-11.59,6.38-17.83,8.53-2.54.88-5.17,1.31-7.76,1.94-1.57.39-3.12.81-4.62,1.45-.31.13-.63.3-.98.12Z"/>
        <path class="cls-4" d="m375.69,59.15c2.31-1.26,4.82-1.82,7.34-2.3,5.82-1.11,11.28-3.36,16.57-6.08,12.62-6.51,24.09-14.87,34.42-24.97,5.66-5.53,10.53-11.77,14.24-18.99-.16-.63.02-1.23.17-1.83.22-.9.24-1.82.11-2.73-.1-.68-.55-1.15-1.02-1.58-.14-.13-.29-.31-.22-.51.08-.23.31-.16.48-.16.52.02,1.04-.07,1.56.05,2.66.09,4.58,1.5,5.96,3.85.46.49.24,1.06.13,1.59-.65,3.23-1.93,6.2-3.56,8.99-1.84,3.15-4.08,5.95-6.46,8.66-7.43,8.49-15.98,15.55-24.87,22.16-7.36,5.47-15.1,10.2-23.43,13.79-4.29,1.85-8.71,3.2-13.31,3.83-2.46.34-4.92.48-7.39.1-.4-.06-.81-.08-1.01-.55-.05-1.12.1-2.23.29-3.33Z"/>
        <path class="cls-3" d="m417.41,107.88c-.14-.07-.28-.21-.41-.2-2.41.25-4.08-1.17-5.49-2.94-5.7-7.14-11.85-13.83-17.8-20.72-2.2-2.54-4.41-5.08-6.38-7.84.19-.35.54-.43.86-.51,4.72-1.21,9.38-2.61,13.96-4.32.2-.08.42-.12.63-.13.56.02.87.43,1.2.82,4.59,5.52,8.78,11.42,13.42,16.89,3.03,3.57,5.62,7.53,8.76,10.98,1.16,1.27,2.38,2.5,3.87,3.35.23.13.54.2.59.56-.06.2-.21.33-.38.4-2.67,1.09-5.33,2.21-8.16,2.79-1.02.07-2,.34-2.93.79-.58.19-1.16.57-1.76.07Z"/>
        <path class="cls-3" d="m456.79,4.85c2.69,3.16,3.96,6.87,3.8,11.13.04.53-.19.95-.43,1.38-3.06,5.33-6.56,10.29-10.5,14.92-6.84,8.03-14.72,14.74-23.16,20.73-5.1,3.62-10.4,6.87-15.83,9.9-.62.35-1.21.81-1.97.8-1.88-.99-3.23-2.58-4.39-4.39-.27-.43-.55-.87-.7-1.38.05-.44.41-.54.7-.71,9.7-5.73,19.15-11.87,27.97-19.05,4.28-3.48,8.38-7.2,12.09-11.38,3.63-4.09,6.86-8.51,9.29-13.53,1.12-2.32,2-4.75,2.61-7.29.1-.4.11-.87.51-1.12Z"/>
        <path class="cls-3" d="m446.18,141.71c-4.68-5.22-9.31-10.49-13.84-15.85-4.12-4.87-8.24-9.74-12.15-14.81.15-.38.49-.49.81-.59,3.96-1.14,7.92-2.29,11.71-4.02.17-.08.36-.11.54-.1.5.08.81.47,1.11.84,7.91,9.8,16.01,19.43,23.29,29.8.36.51.97.85,1.01,1.59-.16.27-.42.38-.68.48-3.46,1.21-6.96,2.25-10.6,2.68-.39.05-.8.13-1.19-.02Z"/>
        <path class="cls-9" d="m408.71,63.5c2.38-1.04,4.58-2.45,6.81-3.78,4.16-2.46,8.23-5.09,12.15-7.96,4.68-3.42,9.22-7.05,13.47-11.08,2.4-2.28,4.76-4.61,6.96-7.1,4.53-5.11,8.55-10.64,11.93-16.69.17-.31.36-.61.55-.92.35.8.7,1.6,1.04,2.4.06.57-.23,1.01-.5,1.46-2.5,4.22-5.33,8.18-8.43,11.92-10.08,12.15-22.23,21.48-35.26,29.63-2.43,1.52-4.89,2.96-7.37,4.39-2.81,1.38-5.61,2.82-8.44,4.15-4.37,1.78-8.81,3.35-13.44,4.16-.58.1-1.2.39-1.77-.11-.54-.19-1.09-.35-1.61-.58-.6-.27-1.1-.69-1.36-1.37.59-.66,1.41-.45,2.1-.51,4.41-.41,8.66-1.45,12.73-3.35.17-.08.36-.11.53-.17,3.08-1.23,6.12-2.55,9.02-4.23.28-.16.59-.15.88-.27Z"/>
        <path class="cls-9" d="m422.07,106.69c2.56-.57,4.99-1.58,7.44-2.51.37-.14.73-.3,1.1-.45,0,0,0,0,0,0,.1-.36.38-.51.66-.63,2.2-.94,4.38-1.91,6.42-3.21.1-.07.23-.08.35-.11.4-.02.76-.15,1.07-.41,0,0,0,0,0,0,2.04-.81,3.85-2.1,5.69-3.28,6.73-4.31,13.01-9.32,19.1-14.6,4.33-3.76,8.57-7.62,12.75-11.57,1.33-1.25,2.7-2.45,4.06-3.66l1.81,1c-.04.38-.25.65-.52.89-6.06,5.68-12.09,11.41-18.44,16.73-6.94,5.82-14.13,11.25-21.79,15.94-.43.26-.86.52-1.31.75-2.49,1.35-4.99,2.67-7.56,3.85-2.14.92-4.3,1.81-6.51,2.54,0,0,0,0,0,0-.56-.04-1.06.24-1.58.38-.09.02-.17.04-.26.06-.33.12-.68.13-1,.29,0,0,0,0,0,0-.25.05-.5.07-.73.19,0,0,0,0,0,0-.38.04-.73.17-1.07.33,0,0,0,0,0,0-.08.03-.16.04-.25.05-.38.01-.75.06-1.12.14,0,0,0,0,0,0-.38.13-.78.19-1.17.24,0,0,0,0,0,0-.14-.01-.26-.1-.38-.17-.49-.53-1.23-.79-1.44-1.6,0,0,0,0,0,0,.58-.03,1.13-.17,1.66-.4,0,0,0,0,0,0,1-.24,2-.49,2.99-.79Z"/>
        <path class="cls-10" d="m410,65.48c6.55-3.84,13.01-7.85,19.16-12.39,5.11-3.77,10.02-7.79,14.64-12.24,6.4-6.17,12.09-12.98,16.79-20.71.35-.58.7-1.17,1.04-1.75.4.64.68,1.35.92,2.07-.98,2.21-2.34,4.18-3.63,6.17-3.38,5.22-7.48,9.79-11.78,14.13-1.96,1.99-4.09,3.79-6.14,5.68-.25.21-.49.42-.74.63-.25.48-.73.66-1.11.98-.27.18-.5.41-.75.61-.48.56-1.09.93-1.66,1.37-.27.18-.51.41-.76.62-6.05,4.78-12.32,9.19-18.84,13.22-1.37.84-2.8,1.54-4.19,2.33-.29.16-.67.22-.73.68-1.03.06-1.5-.9-2.23-1.38Z"/>
        <path class="cls-3" d="m399.06,68.23c-4.96,2.41-10.18,3.59-15.61,3.8-2.26-.39-3.98-1.7-5.41-3.54-.99-1.27-1.81-2.67-2.44-4.18,1.59.19,3.17.53,4.76.54,4.42.04,8.66-1.08,12.79-2.68.29-.11.56-.29.88-.27.19.06.32.22.39.4.67,1.92,2.1,3.13,3.55,4.31.29.24.59.48.85.76.22.23.46.47.25.85Z"/>
        <path class="cls-9" d="m446.18,141.71c.61-.6,1.42-.39,2.12-.49,3.15-.46,6.19-1.4,9.21-2.42.38-.13.75-.26,1.13-.39.15-.38.49-.48.8-.59,1.63-.58,3.2-1.32,4.72-2.19.34-.2.7-.44,1.13-.27,2.82-1.35,5.48-3.02,8.12-4.73,3.77-2.45,7.36-5.2,10.68-8.3,5.37-5.01,10.23-10.51,13.53-17.37.21-.44.36-.9.54-1.36.12-.24.09-.56.35-.71.16-.58.41-.75.84-.22.33.4.52.85.53,1.38-1.17,3.56-2.8,6.83-5.15,9.67-.26.21-.51.44-.62.79-.1.19-.24.36-.4.5-.31.17-.44.49-.59.79-4.46,5.55-9.69,10.15-15.32,14.26-3.55,2.59-7.19,5.02-10.99,7.18-2.25.82-4.28,2.18-6.54,3-2.27.83-4.57,1.56-6.94,2-.34-.06-.66.05-.98.15-.09.03-.19.04-.29.03-.44-.05-.86.06-1.27.19-.1.02-.2.02-.3.01-.87.02-1.74-.07-2.6.12-.49.05-.91-.16-1.32-.4-.14-.22-.28-.44-.41-.66Z"/>
        <path class="cls-3" d="m500.51,105.91c.36,3.69-.98,6.85-2.79,9.83-2.89,4.77-6.74,8.58-10.83,12.13-5.43,4.71-11.27,8.8-17.45,12.31-.13.08-.29.11-.43.17-.67-.28-.93-.9-1.13-1.56,0-.76.57-1.05,1.04-1.4,3.29-2.47,6.67-4.77,9.97-7.23,4.31-3.21,8.51-6.57,12.21-10.59,3.4-3.69,6.29-7.78,8.45-12.44.22-.47.3-1.11.95-1.22Z"/>
        <path class="cls-10" d="m440.44,101.35c2.86-1.89,5.78-3.67,8.59-5.65,7.26-5.1,14.17-10.68,20.78-16.7,4.27-3.88,8.49-7.83,12.73-11.75.36.47.84.87.78,1.58-2.76,2.52-5.51,5.06-8.29,7.56-2.57,2.31-5.14,4.61-7.74,6.87-3.75,3.26-7.6,6.39-11.52,9.42-4.43,3.42-9.04,6.54-13.76,9.49-.24.15-.51.25-.64.55-.95-.09-1.19-.44-.93-1.37Z"/>
        <path class="cls-10" d="m500.51,105.91c-1.54,3.34-3.31,6.54-5.5,9.46-2.26,3.01-4.79,5.73-7.54,8.24-5.78,5.29-12.26,9.5-18.48,14.12-.36.27-.87.43-.9,1.04-.95-.2-1.36-.75-1.3-1.78,3.61-2.28,7.24-4.53,10.7-7.08,3.84-2.84,7.52-5.87,10.91-9.3,1.35-1.36,2.61-2.79,3.81-4.29.22-.27.5-.48.75-.71.17-.29.36-.56.59-.79.11-.13.23-.26.34-.39.16-.3.37-.56.59-.8.89-1.44,1.96-2.74,2.77-4.25.73-1.38,1.36-2.79,1.87-4.28.14-.42.22-.92.75-1.04.85.36.82,1.08.64,1.85Z"/>
        <path class="cls-10" d="m386.42,73.98c4.56-.55,8.9-2.02,13.2-3.64.67-.25,1.34-.48,2.01-.71,1.02.44,1.38.94,1.32,1.79-4.95,1.96-10.03,3.43-15.15,4.74-.15.04-.31.02-.46.03-.41-.37-.86-.72-1.24-1.13-.58-.64-.5-.86.32-1.07Z"/>
        <path class="cls-6" d="m466.79,136.99c.26.74.72,1.31,1.3,1.78.31.52.62,1.05.93,1.57-1.84,1.27-3.91,1.98-5.96,2.71-1.24.31-1.62-.81-2.24-1.53-.23-.5-.88-.83-.53-1.55,2.18-.97,4.21-2.29,6.5-2.98Z"/>
        <path class="cls-3" d="m461.04,141.33c.64.62.96,1.67,2.02,1.72-3.63,1.46-7.33,2.53-11.26,2.25-.74-.05-1.47-.16-2.2-.3-.59-.12-1.1-.41-1.32-1.08.23-.34.58-.4.91-.37,3.58.26,6.87-.97,10.17-2.18.55-.2,1.12-.44,1.68-.03Z"/>
        <path class="cls-10" d="m421.52,109.06c.06,0,.12-.01.17-.02.34-.11.65-.32,1.02-.28.25-.06.48-.2.75-.2"/>
        <path class="cls-10" d="m426.33,107.68c2.17-.84,4.34-1.69,6.52-2.53.43.33.9.64.53,1.33-3.56,1.71-7.27,2.92-11.05,3.94-.72.19-1.43.41-2.15.61-.62-.35-1.15-.78-1.33-1.56.15-.02.29-.04.44-.06"/>
        <path class="cls-10" d="m461.04,141.33c-1.04.06-1.97.53-2.91.9-3.19,1.24-6.44,1.96-9.85,1.68-.47-.64-1.37-.73-1.68-1.56.43-.02.87-.03,1.28.15.93-.23,1.89.09,2.81-.17.03,0,.07,0,.1,0,.43-.26.94.07,1.38-.2.03,0,.07,0,.1,0,.3-.23.69.04.99-.2,2.39-.47,4.69-1.33,7.03-1.97.11.54.5.91.75,1.36Z"/>
        <path class="cls-6" d="m402.95,71.41c-.18-.82-1-1.1-1.32-1.79,2.79-1.38,5.58-2.76,8.37-4.14,1.05-.1,1.4,1.08,2.23,1.38,3.85,5.57,7.97,10.91,12.05,16.28,2.99,3.94,5.92,7.93,8.82,11.95,1.28,1.77,2.66,3.49,4.64,4.45.11.16.53-.08.4.37-2.31,1.7-4.93,2.74-7.52,3.81-1.32-.17-2.16-1.19-3.09-2.03-2.79-2.54-4.92-5.71-7.21-8.72-1.83-2.41-3.9-4.58-5.71-7-1.98-2.65-4.04-5.24-6.1-7.82-1.82-2.28-3.56-4.63-5.55-6.75Z"/>
        <path class="cls-3" d="m438.13,99.92c-.13-.12-.27-.25-.4-.37.46-.06.92-.12,1.38-.18-.25.35-.57.55-.99.55Z"/>
        <path class="cls-5" d="m436.73,50.03c-.17.32-.4.55-.76.62"/>
        <path class="cls-6" d="m433.38,106.49c0-.53-.47-.84-.53-1.33,2.53-1.27,5.06-2.54,7.59-3.8-.04.73.44,1.05.93,1.37,4.22,6.29,8.79,12.28,13.36,18.27,3.44,4.51,6.89,9.02,10.27,13.59.18.24.35.46.29.79-2.1,1.29-4.28,2.39-6.64,3.04-.48-.08-.7-.49-.96-.86-4.19-5.95-8.62-11.69-13.17-17.32-3.71-4.58-7.42-9.16-11.13-13.74Z"/>
        <path class="cls-9" d="m422.07,106.69c-.95.49-1.94.74-2.99.79"/>
        <path class="cls-6" d="m399.06,68.23c-.26-.69-.89-.97-1.38-1.4-1.57-1.35-3.2-2.63-3.65-4.93,3.26-1.22,6.33-2.92,9.64-3.99.83.58,1.06,1.63,1.69,2.39,1,1.22,2.13,2.25,3.35,3.19-1.48,1.19-3.19,1.92-4.86,2.72-1.56.75-3.19,1.35-4.78,2.01Z"/>
        <path class="cls-1" d="m434.89,14.76c-.56-.06-.97-.32-.95-1.09.02-1.01.78-1.9,1.67-1.84.73.05,1.09.54,1.12,1.3.03.83-.86,1.64-1.83,1.63Z"/>
        <path class="cls-2" d="m430.93,13.95c-.03.54-.3.8-.77.82-.4.01-.66-.16-.67-.62-.01-.59.3-.96.82-1.01.51-.05.48.5.63.82Z"/>
        <path class="cls-9" d="m420.39,109.1c0,.05,0,.11,0,.16"/>
      </g>
      <path class="cls-9" d="m456.79,4.85c-.3,2.24-1.06,4.33-1.9,6.39-1.9,4.67-4.59,8.78-7.66,12.65-5.27,6.63-11.51,12.09-18.06,17.19-5.27,4.1-10.77,7.83-16.38,11.37-3,1.89-5.95,3.9-9.12,5.47-.09.28-.31.4-.54.49-2.77,1.08-5.42,2.47-8.2,3.51-.32.12-.65.19-.97.31-3.55,1.5-7.19,2.51-11.01,2.9-1.99.2-3.93.06-5.89-.22-.54-.08-1.01-.27-1.45-.59-.32-.03-.6-.16-.8-.43-.28-.39-.59-.84-.38-1.34.23-.53.65.09.98-.06,2.73.57,5.47.48,8.21.11,9.38-1.29,17.8-5.4,25.91-10.3,10.58-6.39,20.29-14.08,29.34-22.71,4.53-4.33,8.84-8.94,12.22-14.41,1.9-3.07,3.34-6.36,4.09-9.98.09-.42.16-.84.13-1.27.68-.46.94-.3,1.48.94Z"/>
    </g>
    <path class="cls-7" d="m548.11,11.67c0,6.99-.21,17.47-.63,31.42-.42,13.96-.63,24.43-.63,31.42,0,1.99.02,4.94.07,8.86.04,3.92.07,6.87.07,8.86,0,16.76-1.77,27.94-5.31,33.55-5.36,8.68-18.35,13.02-38.98,13.02-11.64,0-20.26-1.6-25.83-4.79-5.22-3.01-8.72-8.02-10.49-15.01-1.33-5.37-1.99-14.2-1.99-26.49,0-1.75.02-4.61.07-8.59v-9.4c0-6.99-.21-17.5-.63-31.51-.42-14.02-.63-24.52-.63-31.51,0-1.33.53-1.99,1.59-1.99,3.28,0,8.22.06,14.84.18,6.62.12,11.57.18,14.84.18,2.83,0,3.92-.03,3.25-.09,1.5.18,2.26.84,2.26,1.99,0,6.93-.23,17.36-.7,31.29-.46,13.93-.7,24.35-.7,31.29,0,.78-.02,2.14-.07,4.07-.04,1.93-.07,3.41-.07,4.43,0,11.64,2.63,17.45,7.9,17.45,4.29,0,6.44-4.49,6.44-13.47,0-8.2-.19-20.53-.56-36.98-.38-16.46-.56-28.78-.56-36.98,0-1.81.38-2.74,1.13-2.8,1.59-.24,4.36-.27,8.3-.09,5.31.18,8.19.27,8.63.27,1.86,0,4.65-.12,8.37-.36,3.72-.24,6.51-.36,8.37-.36,1.11,0,1.66.72,1.66,2.17Z"/>
  </g>
</svg>